HIERARCHY
ROOT Hips
{
	OFFSET 0.000000 8.830580 0.000000
	CHANNELS 6 Xposition Yposition Zposition Zrotation Yrotation Xrotation 
	JOINT Spine
	{
		OFFSET 0.000000 0.010000 0.000000
		CHANNELS 3 Zrotation Yrotation Xrotation
		JOINT Spine1
		{
			OFFSET 0.000000 2.459130 0.000000
			CHANNELS 3 Zrotation Yrotation Xrotation
			JOINT Neck
			{
				OFFSET 0.000000 2.484630 0.000000
				CHANNELS 3 Zrotation Yrotation Xrotation
				JOINT Head_virtual
				{
					OFFSET 0.000000 0.000000 0.000000
					CHANNELS 3 Zrotation Yrotation Xrotation
					JOINT Head
					{
						OFFSET 0.000000 0.927525 0.000000
						CHANNELS 3 Zrotation Yrotation Xrotation
						End Site
						{
							OFFSET 0.000000 0.000000 0.000000
						}
					}
				}
				JOINT LeftUpArm_virtual
				{
					OFFSET 0.000000 0.000000 0.000000
					CHANNELS 3 Zrotation Yrotation Xrotation
					JOINT LeftUpArm
					{
						OFFSET 1.248820 0.000000 0.000000
						CHANNELS 3 Zrotation Yrotation Xrotation
						JOINT LeftForeArm
						{
							OFFSET 2.597580 0.000000 0.000000
							CHANNELS 3 Zrotation Yrotation Xrotation
							JOINT LeftHand
							{
								OFFSET 2.455420 0.000000 0.000000
								CHANNELS 3 Zrotation Yrotation Xrotation
								End Site
								{
									OFFSET 0.000000 0.000000 0.000000
								}
							}
						}
					}
				}
				JOINT RightUpArm_virtual
				{
					OFFSET -0.000000 -0.000000 -0.000000
					CHANNELS 3 Zrotation Yrotation Xrotation
					JOINT RightUpArm
					{
						OFFSET -1.248820 -0.000000 -0.000000
						CHANNELS 3 Zrotation Yrotation Xrotation
						JOINT RightForeArm
						{
							OFFSET -2.597580 -0.000000 -0.000000
							CHANNELS 3 Zrotation Yrotation Xrotation
							JOINT RightHand
							{
								OFFSET -2.455420 -0.000000 -0.000000
								CHANNELS 3 Zrotation Yrotation Xrotation
								End Site
								{
									OFFSET 0.000000 0.000000 0.000000
								}
							}
						}
					}
				}
			}
		}
	}
	JOINT LeftUpLeg
	{
		OFFSET 1.271939 0.000000 0.000000
		CHANNELS 3 Zrotation Yrotation Xrotation
		JOINT LeftLowLeg
		{
			OFFSET 0.000000 -4.342910 0.000000
			CHANNELS 3 Zrotation Yrotation Xrotation
			JOINT LeftFoot
			{
				OFFSET 0.000000 -4.487670 0.000000
				CHANNELS 3 Zrotation Yrotation Xrotation
				JOINT LeftToeBase
				{
					OFFSET 0.000000 0.000000 1.515070
					CHANNELS 3 Zrotation Yrotation Xrotation
					End Site
					{
						OFFSET 0.000000 0.000000 0.000000
					}
				}
			}
		}
	}
	JOINT RightUpLeg
	{
		OFFSET -1.271939 0.000000 0.000000
		CHANNELS 3 Zrotation Yrotation Xrotation
		JOINT RightLowLeg
		{
			OFFSET 0.000000 -4.342910 0.000000
			CHANNELS 3 Zrotation Yrotation Xrotation
			JOINT RightFoot
			{
				OFFSET 0.000000 -4.487670 0.000000
				CHANNELS 3 Zrotation Yrotation Xrotation
				JOINT RightToeBase
				{
					OFFSET 0.000000 0.000000 1.515070
					CHANNELS 3 Zrotation Yrotation Xrotation
					End Site
					{
						OFFSET 0.000000 0.000000 0.000000
					}
				}
			}
		}
	}
}
MOTION
Frames: 5
Frame Time: 0.041667
-15.929584 8.912745 37.202628 177.860298 5.717270 174.105948 3.399813 1.369108 -12.804618 -8.811141 4.791517 23.317178 0.000000 0.000000 0.000000 11.643805 1.581651 10.477001 1.302914 -1.622706 -86.435553 -24.204201 1.649230 4.533997 -46.547001 -6.740700 15.298300 0.000000 -15.652400 0.000000 8.379090 14.615300 -2.960750 31.643801 -4.666870 1.381012 48.533600 2.670890 7.493011 0.000000 19.706400 0.000000 3.676930 -8.992540 -15.135600 -2.495222 -6.635961 0.159497 0.000000 0.000000 18.146999 -21.780264 9.920162 -5.661111 0.000000 0.000000 -19.557950 0.548999 8.462890 -0.307612 0.000000 0.000000 22.341900 33.330595 -9.328693 -15.241771 0.000000 0.000000 -16.489790 
-15.928211 8.912736 37.201456 177.859229 5.661704 174.129618 3.367692 1.318206 -12.860262 -8.795455 4.777610 23.348105 0.000000 0.000000 0.000000 11.648470 1.590182 10.490828 1.281158 -1.612870 -86.416615 -24.208300 1.670590 4.523010 -46.521198 -6.747590 15.343600 0.000000 -15.652500 0.000000 8.389230 14.606000 -2.855000 31.621599 -4.642600 1.362000 48.561600 2.675310 7.485992 0.000000 19.712400 0.000000 3.723480 -9.053550 -15.172000 -2.489972 -6.680984 0.126284 0.000000 0.000000 18.169001 -21.832763 9.889411 -5.674386 0.000000 0.000000 -19.510730 0.558477 8.458827 -0.311905 0.000000 0.000000 22.341600 33.353837 -9.355720 -15.280720 0.000000 0.000000 -16.481190 
-15.927525 8.912545 37.201441 177.862231 5.653586 174.123813 3.364269 1.319342 -12.862868 -8.789204 4.787523 23.368246 0.000000 0.000000 0.000000 11.668830 1.573207 10.481304 1.273574 -1.608412 -86.387667 -24.201300 1.646000 4.523010 -46.507801 -6.742950 15.366700 0.000000 -15.662000 0.000000 8.411800 14.601300 -2.827540 31.655500 -4.628850 1.359009 48.512100 2.680760 7.487000 0.000000 19.794201 0.000000 3.804690 -9.226000 -15.212500 -2.483075 -6.694993 0.118845 0.000000 0.000000 18.198601 -21.801231 9.892529 -5.673018 0.000000 0.000000 -19.528840 0.562880 8.434696 -0.299775 0.000000 0.000000 22.329399 33.316164 -9.358098 -15.276059 0.000000 0.000000 -16.473570 
-15.926496 8.912187 37.201152 177.864592 5.636078 174.119773 3.361407 1.317980 -12.864261 -8.786554 4.793800 23.389963 0.000000 0.000000 0.000000 11.670890 1.576514 10.479980 1.274103 -1.603961 -86.379999 -24.203600 1.632180 4.514008 -46.472801 -6.738580 15.403600 0.000000 -15.684300 0.000000 8.436840 14.624600 -2.681180 31.659901 -4.632190 1.355011 48.507301 2.711230 7.519989 0.000000 19.815300 0.000000 3.835330 -9.271860 -15.140600 -2.474390 -6.672993 0.105846 0.000000 0.000000 18.231300 -21.861358 9.838856 -5.686809 0.000000 0.000000 -19.553650 0.572520 8.417945 -0.287951 0.000000 0.000000 22.326900 33.380430 -9.323660 -15.291757 0.000000 0.000000 -16.493020 
-15.925629 8.912306 37.201537 177.883468 5.590555 174.118041 3.367681 1.290087 -12.858515 -8.776153 4.780350 23.443497 0.000000 0.000000 0.000000 11.565481 1.699462 10.479907 1.320567 -1.591599 -86.426171 -24.235300 1.649420 4.463013 -46.415901 -6.750640 15.507900 0.000000 -15.703600 0.000000 8.457950 14.600700 -2.798420 31.687799 -4.648380 1.338013 48.466000 2.769080 7.596985 0.000000 19.857599 0.000000 3.862130 -9.288440 -15.129200 -2.459253 -6.762995 0.072966 0.000000 0.000000 18.295401 -21.846371 9.875812 -5.705215 0.000000 0.000000 -19.574890 0.594519 8.382761 -0.280228 0.000000 0.000000 22.327801 33.350569 -9.357836 -15.280511 0.000000 0.000000 -16.480910 
